<?xml version="1.0" standalone="no"?><!DOCTYPE svg PUBLIC "-//W3C//DTD SVG 1.1//EN" "http://www.w3.org/Graphics/SVG/1.1/DTD/svg11.dtd"><svg t="1487759548347" class="icon" style="" viewBox="0 0 1024 1024" version="1.1" xmlns="http://www.w3.org/2000/svg" p-id="15166" xmlns:xlink="http://www.w3.org/1999/xlink" width="200" height="200"><defs><style type="text/css"></style></defs><path d="M1003.36 422.88 576.512 85.504c-36.192-28.608-92.832-28.608-129.024 0L20.64 422.88c-13.856 10.976-16.224 31.104-5.28 44.96 11.008 13.856 31.104 16.224 44.96 5.28L96 444.928 96 832c0 52.928 43.072 96 96 96l317.376 0 0.544 0L512 928l320 0c52.928 0 96-43.072 96-96L928 444.928l35.68 28.192C969.536 477.76 976.544 480 983.488 480c9.44 0 18.816-4.16 25.12-12.16C1019.584 453.984 1017.216 433.856 1003.36 422.88zM510.496 864 480 864l0-192c0-8.832 16-13.248 32-13.248s32 4.416 32 13.248l0 192-32 0C511.488 864 511.008 864 510.496 864zM864 416l0 416c0 17.632-14.368 32-32 32l-224 0 0-192c0-37.216-30.048-77.248-96-77.248-65.952 0-96 40.032-96 77.248l0 192L192 864c-17.632 0-32-14.368-32-32L160 416c0-6.464-2.4-12.128-5.696-17.184l332.864-263.104c12.992-10.272 36.672-10.272 49.664 0l332.864 263.104C866.4 403.872 864 409.536 864 416z" p-id="15167"></path></svg>