<?xml version="1.0" standalone="no"?><!DOCTYPE svg PUBLIC "-//W3C//DTD SVG 1.1//EN" "http://www.w3.org/Graphics/SVG/1.1/DTD/svg11.dtd"><svg t="1487759260988" class="icon" style="" viewBox="0 0 1024 1024" version="1.1" xmlns="http://www.w3.org/2000/svg" p-id="14513" xmlns:xlink="http://www.w3.org/1999/xlink" width="200" height="200"><defs><style type="text/css"></style></defs><path d="M1024 922.566l-91.702 0c0-458.148-372.716-830.866-830.866-830.866L101.432 0C610.148 0 1024 413.85 1024 922.566z" p-id="14514"></path><path d="M723.88 922.566 632.18 922.566c0-292.714-238.09-530.806-530.746-530.806L101.434 300.06C444.656 300.06 723.88 579.344 723.88 922.566z" p-id="14515"></path><path d="M196.836 722.03c57.97 0 105.074 47.164 105.074 105.194 0 57.91-47.104 105.074-105.074 105.074-57.968 0-105.132-47.164-105.132-105.074C91.704 769.194 138.868 722.03 196.836 722.03M196.836 630.328C88.122 630.328 0 718.448 0 827.222 0 935.878 88.122 1024 196.836 1024c108.656 0 196.778-88.122 196.778-196.778C393.614 718.448 305.492 630.328 196.836 630.328L196.836 630.328z" p-id="14516"></path></svg>